<svg width="64" height="64" xmlns="http://www.w3.org/2000/svg">

 <g>
  <title>background</title>
  <rect fill="none" id="canvas_background" height="402" width="582" y="-1" x="-1"/>
 </g>
 <g>
  <title>Layer 1</title>
  <circle id="svg_2" r="32" fill="#07addf" cy="32" cx="32"/>
  <path opacity="0.2" id="svg_5" fill="#231F20" d="m39.984,11.174c0.002,-0.016 0.016,-0.043 0.016,-0.057c0,-0.161 -0.005,-0.113 -0.016,0.057z"/>
  <path opacity="0.2" id="svg_7" fill="#231F20" d="m24,11.117c0,0.016 0.015,0.044 0.018,0.062c-0.012,-0.174 -0.018,-0.225 -0.018,-0.062z"/>
  <path opacity="0.2" id="svg_10" fill="#231F20" d="m48,32c0,-6.469 -3.847,-12.027 -9.37,-14.549c-1.726,-0.724 -2.63,0.595 -2.63,1.666l0,8.5c0,0.828 0.672,1.383 1.5,1.383l3.061,0c1.471,0 1.883,1.127 0.914,2.362l-7.713,9.829c-0.969,1.235 -2.555,1.235 -3.524,0l-7.713,-9.829c-0.969,-1.235 -0.558,-2.362 0.914,-2.362l3.061,0c0.828,0 1.5,-0.555 1.5,-1.383l0,-8.5c0,-1.105 -1.504,-2.142 -2.753,-1.61c-0.003,0.001 -0.005,-0.002 -0.008,-0.001c-4.311,2.02 -7.573,5.905 -8.748,10.62c-4.804,0.728 -8.491,4.865 -8.491,9.874c0,5.523 4.477,10 10,10l30,0c4.418,0 8,-3.582 8,-8s-3.582,-8 -8,-8z"/>
  <path id="svg_12" fill="#FFFFFF" d="m48,30c0,-6.469 -3.847,-12.027 -9.37,-14.549c-1.726,-0.724 -2.63,0.595 -2.63,1.666l0,8.5c0,0.828 0.672,1.383 1.5,1.383l3.061,0c1.471,0 1.883,1.127 0.914,2.362l-7.713,9.829c-0.969,1.235 -2.555,1.235 -3.524,0l-7.713,-9.829c-0.969,-1.235 -0.558,-2.362 0.914,-2.362l3.061,0c0.828,0 1.5,-0.555 1.5,-1.383l0,-8.5c0,-1.105 -1.504,-2.142 -2.753,-1.61c-0.003,0.001 -0.005,-0.002 -0.008,-0.001c-4.311,2.02 -7.573,5.905 -8.748,10.62c-4.804,0.728 -8.491,4.865 -8.491,9.874c0,5.523 4.477,10 10,10l30,0c4.418,0 8,-3.582 8,-8s-3.582,-8 -8,-8z"/>
  <path id="svg_14" fill="#8C81D4" d="m39.984,9.174c0.002,-0.016 0.016,-0.043 0.016,-0.057c0,-0.161 -0.005,-0.113 -0.016,0.057z"/>
  <path id="svg_16" fill="#8C81D4" d="m24,9.117c0,0.016 0.015,0.044 0.018,0.062c-0.012,-0.174 -0.018,-0.225 -0.018,-0.062z"/>
 </g>
</svg>