<?xml version="1.0" encoding="utf-8"?>
<!-- Generator: Adobe Illustrator 22.1.0, SVG Export Plug-In . SVG Version: 6.00 Build 0)  -->
<svg version="1.1" id="ARTWORK" xmlns="http://www.w3.org/2000/svg" xmlns:xlink="http://www.w3.org/1999/xlink" x="0px" y="0px"
	 viewBox="0 0 1074 153.4" style="enable-background:new 0 0 1074 153.4;" xml:space="preserve">
<style type="text/css">
	.st0{fill:rgb(7, 173, 223);}
</style>
<g>
	<path d="M10.3,17.8h10.8v79.7h40.4v10.2H10.3V17.8z"/>
	<path d="M84.4,105.3c-5-2.9-8.9-7-11.6-12.1C70,88,68.6,82.2,68.6,75.8c0-6.2,1.3-11.9,3.9-17.1c2.6-5.2,6.3-9.3,11.1-12.4
		c4.8-3.1,10.4-4.6,16.7-4.6c6.4,0,12,1.4,16.7,4.2c4.7,2.8,8.3,6.7,10.9,11.6c2.5,4.9,3.8,10.6,3.8,16.9c0,1.3-0.1,2.3-0.4,3.3
		H79.5c0.3,4.9,1.5,9,3.6,12.3c2.1,3.3,4.9,5.9,8.2,7.5c3.3,1.7,6.8,2.5,10.4,2.5c8.4,0,14.9-3.8,19.4-11.5l9.3,4.4
		c-2.8,5.2-6.7,9.3-11.5,12.3c-4.8,3-10.7,4.5-17.6,4.5C95,109.7,89.4,108.2,84.4,105.3z M120.2,68.9c-0.2-2.7-0.9-5.4-2.3-8
		c-1.4-2.7-3.5-4.9-6.5-6.8c-3-1.8-6.7-2.8-11.1-2.8c-5.1,0-9.5,1.6-13.1,4.8c-3.6,3.2-5.9,7.5-7,12.7H120.2z"/>
	<path d="M160.4,107.4c-2.3-0.8-4.2-2-5.7-3.4c-1.7-1.6-3-3.4-3.9-5.5c-0.9-2.1-1.3-4.6-1.3-7.7V53.3h-11.5v-9.7h11.5V25.6h10.9
		v18.1h16v9.7h-16v34.9c0,3.5,0.7,6.1,2.1,7.8c1.6,1.8,4,2.8,7.1,2.8c2.5,0,4.9-0.7,7.2-2.1V107c-1.3,0.6-2.6,1-3.9,1.3
		c-1.3,0.3-3,0.4-5.1,0.4C165.2,108.7,162.7,108.3,160.4,107.4z"/>
	<path d="M235.6,28h-25.9V17.8h62.6V28h-25.7v79.7h-10.9V28z"/>
	<path d="M283.8,17.8h10.9v26.5l-0.5,8.8h0.5c1.8-3.3,4.7-6,8.6-8.2c3.9-2.2,8.2-3.3,12.8-3.3c8,0,14.1,2.3,18.3,6.8
		c4.2,4.6,6.3,10.6,6.3,18.1v41h-10.9V68.3c0-5.8-1.5-10-4.5-12.8c-3-2.8-6.9-4.1-11.7-4.1c-3.4,0-6.6,1-9.5,3
		c-2.9,2-5.1,4.6-6.8,7.8c-1.7,3.2-2.5,6.5-2.5,9.9v35.6h-10.9V17.8z"/>
	<path d="M368.8,105.3c-5-2.9-8.9-7-11.6-12.1c-2.8-5.1-4.2-10.9-4.2-17.4c0-6.2,1.3-11.9,3.9-17.1c2.6-5.2,6.3-9.3,11.1-12.4
		c4.8-3.1,10.4-4.6,16.7-4.6c6.4,0,12,1.4,16.7,4.2c4.7,2.8,8.3,6.7,10.9,11.6c2.5,4.9,3.8,10.6,3.8,16.9c0,1.3-0.1,2.3-0.4,3.3
		h-51.9c0.3,4.9,1.5,9,3.6,12.3c2.1,3.3,4.9,5.9,8.2,7.5c3.3,1.7,6.8,2.5,10.4,2.5c8.4,0,14.9-3.8,19.4-11.5l9.3,4.4
		c-2.8,5.2-6.7,9.3-11.5,12.3c-4.8,3-10.7,4.5-17.6,4.5C379.4,109.7,373.8,108.2,368.8,105.3z M404.6,68.9c-0.2-2.7-0.9-5.4-2.3-8
		c-1.4-2.7-3.5-4.9-6.5-6.8c-3-1.8-6.7-2.8-11.1-2.8c-5.1,0-9.5,1.6-13.1,4.8c-3.6,3.2-5.9,7.5-7,12.7H404.6z"/>
	<path class="st0" d="M460.9,17.8h15.8l29.3,73.7h0.5L536,17.8h15.8v89.9H541V50.6l0.5-17.1H541l-30.1,74.2h-9l-30.1-74.2h-0.5
		l0.5,17.1v57.1h-10.8V17.8z"/>
	<path class="st0" d="M574.7,102.9c-4.2-4.5-6.2-10.8-6.2-19V43.7h10.9v38.7c0,6.1,1.4,10.6,4.2,13.4c2.8,2.8,6.6,4.3,11.5,4.3
		c3.7,0,7-1,9.8-2.9c2.9-1.9,5.1-4.4,6.7-7.5c1.6-3.1,2.4-6.4,2.4-9.8V43.7h10.9v64h-10.4v-9.3H614c-1.8,3.2-4.7,5.9-8.6,8
		c-3.9,2.2-8.2,3.3-12.6,3.3C584.8,109.7,578.8,107.4,574.7,102.9z"/>
	<path class="st0" d="M645.8,104.9c-4.7-3.2-8.1-7.3-10-12.4l9.8-4.3c1.6,3.8,4.1,6.8,7.3,8.9c3.2,2.1,6.8,3.1,10.6,3.1
		c4.1,0,7.6-0.8,10.6-2.4c2.9-1.6,4.4-4,4.4-7c0-2.7-1.2-4.8-3.5-6.5c-2.3-1.6-6-3-10.9-4.2l-8-2c-5.2-1.3-9.5-3.4-12.9-6.4
		s-5-6.9-5-11.7c0-3.7,1.1-6.9,3.4-9.7c2.3-2.8,5.3-5,9.1-6.5c3.8-1.5,7.9-2.3,12.2-2.3c5.7,0,10.9,1.2,15.4,3.6
		c4.5,2.4,7.7,5.8,9.6,10.2l-9.5,4.3c-2.9-5.7-8.1-8.5-15.6-8.5c-3.6,0-6.8,0.8-9.5,2.4c-2.7,1.6-4.1,3.7-4.1,6.2
		c0,2.3,0.9,4.2,2.8,5.7c1.9,1.5,4.7,2.7,8.5,3.6l9.5,2.4c6.4,1.6,11.3,4,14.5,7.1c3.3,3.1,4.9,7,4.9,11.5c0,3.9-1.2,7.4-3.5,10.4
		c-2.3,3-5.5,5.3-9.4,6.8c-3.9,1.6-8.3,2.4-13.1,2.4C656.4,109.7,650.5,108.1,645.8,104.9z"/>
	<path class="st0" d="M701.6,29.6c-1.5-1.5-2.3-3.3-2.3-5.4c0-2.1,0.8-3.9,2.3-5.3c1.5-1.5,3.4-2.2,5.5-2.2c2.1,0,4,0.7,5.5,2.2
		c1.5,1.5,2.3,3.2,2.3,5.3c0,2.1-0.8,3.9-2.3,5.4c-1.5,1.5-3.4,2.3-5.6,2.3C705,31.9,703.2,31.1,701.6,29.6z M701.8,43.7h10.8v64
		h-10.8V43.7z"/>
	<path class="st0" d="M741.8,105.2c-5.1-3-9-7-11.8-12.2s-4.2-10.9-4.2-17.4c0-6.4,1.4-12.3,4.2-17.4c2.8-5.2,6.8-9.2,11.8-12.2
		c5.1-2.9,10.8-4.4,17.1-4.4c7.1,0,13.1,1.6,18,4.8c4.8,3.2,8.3,7.5,10.4,12.9l-9.9,4c-1.6-3.9-4.1-6.9-7.3-9
		c-3.2-2-7.1-3.1-11.6-3.1c-3.9,0-7.5,1-10.8,3.1c-3.3,2.1-6,4.9-8,8.6c-2,3.7-3,7.9-3,12.7s1,9,3,12.7c2,3.7,4.7,6.5,8,8.6
		c3.3,2.1,7,3.1,10.8,3.1c4.6,0,8.6-1,12-3.1c3.3-2.1,5.8-5.1,7.5-8.9l9.8,4c-2.2,5.3-5.8,9.5-10.7,12.8c-4.9,3.3-10.9,4.9-18,4.9
		C752.6,109.7,746.9,108.2,741.8,105.2z"/>
	<path d="M831.5,17.8h31c5.1,0,9.9,1.1,14.3,3.4c4.4,2.3,7.9,5.4,10.5,9.5c2.6,4.1,3.9,8.6,3.9,13.7c0,5.1-1.3,9.7-3.9,13.7
		c-2.6,4.1-6.1,7.2-10.5,9.5c-4.4,2.3-9.1,3.4-14.3,3.4h-20.2v36.6h-10.8V17.8z M862.8,60.9c3.4,0,6.5-0.8,9.1-2.4
		c2.6-1.6,4.7-3.6,6.1-6.1c1.5-2.5,2.2-5.1,2.2-7.9s-0.7-5.4-2.2-7.9c-1.5-2.5-3.5-4.6-6.1-6.1c-2.6-1.6-5.6-2.4-9.1-2.4h-20.5v32.9
		H862.8z"/>
	<path d="M904.1,17.8h10.9v89.9h-10.9V17.8z"/>
	<path d="M938.7,106.9c-3.8-1.8-6.7-4.4-8.8-7.6c-2.1-3.2-3.1-6.9-3.1-11c0-6.8,2.6-12.1,7.9-15.9c5.2-3.8,11.8-5.7,19.8-5.7
		c3.9,0,7.6,0.4,11,1.3c3.4,0.8,6,1.8,7.8,2.9V67c0-4.8-1.7-8.6-5.1-11.5c-3.4-2.9-7.8-4.3-13-4.3c-3.7,0-7.1,0.8-10.2,2.3
		c-3.1,1.5-5.5,3.7-7.3,6.5l-8.2-6c2.6-3.8,6.1-6.9,10.6-9c4.5-2.2,9.5-3.3,15-3.3c8.9,0,15.9,2.3,21,6.8c5.1,4.6,7.7,10.8,7.7,18.6
		v40.5h-10.4v-9.2h-0.5c-1.9,3.1-4.7,5.7-8.5,7.9c-3.8,2.2-8,3.3-12.7,3.3C946.8,109.7,942.5,108.8,938.7,106.9z M962.9,97.5
		c3.2-1.8,5.7-4.3,7.6-7.4c1.9-3.1,2.8-6.5,2.8-10.2c-2.1-1.3-4.6-2.4-7.6-3.3c-3-0.8-6.2-1.3-9.5-1.3c-6,0-10.5,1.2-13.6,3.6
		c-3,2.4-4.6,5.6-4.6,9.4c0,3.5,1.4,6.4,4.1,8.5c2.7,2.2,6.2,3.3,10.4,3.3C956.3,100.3,959.8,99.3,962.9,97.5z"/>
	<path d="M1017.8,103.7l-27.2-60h11.8l20.6,47.6h0.3l19.8-47.6h11.8l-40.5,91.1h-11.3L1017.8,103.7z"/>
</g>
</svg>
